<?xml version="1.0" encoding="UTF-8" standalone="no"?>
<svg
   width="16"
   height="16"
   fill="#fff"
   class="bi bi-file-earmark"
   viewBox="0 0 16 16"
   version="1.1"
   id="svg4"
   sodipodi:docname="page-ltr.svg"
   inkscape:version="1.1.1 (3bf5ae0d25, 2021-09-20, custom)"
   xmlns:inkscape="http://www.inkscape.org/namespaces/inkscape"
   xmlns:sodipodi="http://sodipodi.sourceforge.net/DTD/sodipodi-0.dtd"
   xmlns="http://www.w3.org/2000/svg"
   xmlns:svg="http://www.w3.org/2000/svg">
  <defs
     id="defs8" />
  <sodipodi:namedview
     id="namedview6"
     pagecolor="#ffffff"
     bordercolor="#666666"
     borderopacity="1.0"
     inkscape:pageshadow="2"
     inkscape:pageopacity="0.0"
     inkscape:pagecheckerboard="0"
     showgrid="false"
     inkscape:snap-text-baseline="false"
     inkscape:zoom="23.976841"
     inkscape:cx="6.21433"
     inkscape:cy="13.200238"
     inkscape:window-width="2560"
     inkscape:window-height="1386"
     inkscape:window-x="0"
     inkscape:window-y="13"
     inkscape:window-maximized="1"
     inkscape:current-layer="svg4" />
  <path
     d="M14 4.5V14a2 2 0 0 1-2 2H4a2 2 0 0 1-2-2V2a2 2 0 0 1 2-2h5.5L14 4.5zm-3 0A1.5 1.5 0 0 1 9.5 3V1H4a1 1 0 0 0-1 1v12a1 1 0 0 0 1 1h8a1 1 0 0 0 1-1V4.5h-2z"
     id="path2" />
  <text
     xml:space="preserve"
     style="font-style:normal;font-weight:normal;font-size:5.33333px;line-height:1.25;font-family:sans-serif;fill:#fff;fill-opacity:1;stroke:none"
     x="3.2045236"
     y="10.900065"
     id="text1773"><tspan
       sodipodi:role="line"
       id="tspan1771"
       x="3.2045236"
       y="10.900065"
       style="font-size:5.33333px">LTR</tspan></text>
</svg>
